<svg width="37" height="16" viewBox="0 0 37 16" fill="none" xmlns="http://www.w3.org/2000/svg">
<path d="M11.8027 10.4883C11.627 11.9922 11.0703 13.1543 10.1328 13.9746C9.20182 14.7884 7.96159 15.1953 6.41211 15.1953C4.73242 15.1953 3.38477 14.5931 2.36914 13.3887C1.36003 12.1842 0.855469 10.5729 0.855469 8.55469V7.1875C0.855469 5.86589 1.08984 4.70378 1.55859 3.70117C2.03385 2.69857 2.70443 1.93034 3.57031 1.39648C4.4362 0.85612 5.4388 0.585938 6.57812 0.585938C8.08854 0.585938 9.29948 1.00911 10.2109 1.85547C11.1224 2.69531 11.653 3.86068 11.8027 5.35156H9.91797C9.75521 4.21875 9.40039 3.39844 8.85352 2.89062C8.31315 2.38281 7.55469 2.12891 6.57812 2.12891C5.38021 2.12891 4.43945 2.57161 3.75586 3.45703C3.07878 4.34245 2.74023 5.60221 2.74023 7.23633V8.61328C2.74023 10.1562 3.0625 11.3835 3.70703 12.2949C4.35156 13.2064 5.25326 13.6621 6.41211 13.6621C7.45378 13.6621 8.2513 13.4277 8.80469 12.959C9.36458 12.4837 9.73568 11.6602 9.91797 10.4883H11.8027ZM16.2461 9.43359V15H14.3711V0.78125H19.6152C21.1712 0.78125 22.3887 1.17839 23.2676 1.97266C24.153 2.76693 24.5957 3.81836 24.5957 5.12695C24.5957 6.50716 24.1628 7.57161 23.2969 8.32031C22.4375 9.0625 21.2038 9.43359 19.5957 9.43359H16.2461ZM16.2461 7.90039H19.6152C20.6178 7.90039 21.3861 7.66602 21.9199 7.19727C22.4538 6.72201 22.7207 6.03841 22.7207 5.14648C22.7207 4.30013 22.4538 3.62305 21.9199 3.11523C21.3861 2.60742 20.6536 2.34375 19.7227 2.32422H16.2461V7.90039ZM36.998 0.78125V10.4492C36.9915 11.7904 36.5684 12.8874 35.7285 13.7402C34.8952 14.5931 33.7624 15.0716 32.3301 15.1758L31.832 15.1953C30.276 15.1953 29.0358 14.7754 28.1113 13.9355C27.1868 13.0957 26.7181 11.9401 26.7051 10.4688V0.78125H28.5605V10.4102C28.5605 11.4388 28.8438 12.2396 29.4102 12.8125C29.9766 13.3789 30.7839 13.6621 31.832 13.6621C32.8932 13.6621 33.7038 13.3789 34.2637 12.8125C34.8301 12.2461 35.1133 11.4486 35.1133 10.4199V0.78125H36.998Z" fill="black"/>
</svg>
