<svg width="37" height="21" viewBox="0 0 37 21" fill="none" xmlns="http://www.w3.org/2000/svg">
<path d="M9.62109 4.93848V8H8.58984V0.179688H11.4741C12.3299 0.179688 12.9995 0.398112 13.4829 0.834961C13.9699 1.27181 14.2134 1.8501 14.2134 2.56982C14.2134 3.32894 13.9753 3.91439 13.499 4.32617C13.0264 4.73438 12.3478 4.93848 11.4634 4.93848H9.62109ZM9.62109 4.09521H11.4741C12.0256 4.09521 12.4481 3.96631 12.7417 3.7085C13.0353 3.4471 13.1821 3.07113 13.1821 2.58057C13.1821 2.11507 13.0353 1.74268 12.7417 1.46338C12.4481 1.18408 12.0452 1.03906 11.5332 1.02832H9.62109V4.09521ZM21.2817 5.51855C21.1851 6.3457 20.8789 6.98486 20.3633 7.43604C19.8512 7.88363 19.1691 8.10742 18.3169 8.10742C17.3931 8.10742 16.6519 7.7762 16.0933 7.11377C15.5382 6.45133 15.2607 5.5651 15.2607 4.45508V3.70312C15.2607 2.97624 15.3896 2.33708 15.6475 1.78564C15.9089 1.23421 16.2777 0.811686 16.7539 0.518066C17.2301 0.220866 17.7816 0.0722656 18.4082 0.0722656C19.2389 0.0722656 19.9049 0.305013 20.4062 0.770508C20.9076 1.23242 21.1994 1.87337 21.2817 2.69336H20.2451C20.1556 2.07031 19.9604 1.61914 19.6597 1.33984C19.3625 1.06055 18.9453 0.920898 18.4082 0.920898C17.7493 0.920898 17.2319 1.16439 16.856 1.65137C16.4836 2.13835 16.2974 2.83122 16.2974 3.72998V4.4873C16.2974 5.33594 16.4746 6.0109 16.8291 6.51221C17.1836 7.01351 17.6795 7.26416 18.3169 7.26416C18.8898 7.26416 19.3285 7.13525 19.6328 6.87744C19.9408 6.61605 20.1449 6.16309 20.2451 5.51855H21.2817ZM24.9985 4.51416C24.1141 4.25993 23.4696 3.9484 23.0649 3.57959C22.6639 3.20719 22.4634 2.74886 22.4634 2.20459C22.4634 1.5887 22.7087 1.08024 23.1992 0.679199C23.6934 0.274577 24.3343 0.0722656 25.1221 0.0722656C25.6592 0.0722656 26.1372 0.176107 26.5562 0.383789C26.9787 0.591471 27.3045 0.87793 27.5337 1.24316C27.7664 1.6084 27.8828 2.00765 27.8828 2.44092H26.8462C26.8462 1.96826 26.6958 1.59766 26.395 1.3291C26.0942 1.05697 25.6699 0.920898 25.1221 0.920898C24.6136 0.920898 24.2161 1.03369 23.9297 1.25928C23.6468 1.48128 23.5054 1.79102 23.5054 2.18848C23.5054 2.50716 23.6396 2.77751 23.9082 2.99951C24.1803 3.21794 24.6405 3.41846 25.2886 3.60107C25.9403 3.78369 26.4487 3.986 26.814 4.20801C27.1828 4.42643 27.4549 4.68245 27.6304 4.97607C27.8094 5.26969 27.8989 5.61523 27.8989 6.0127C27.8989 6.64648 27.6519 7.15495 27.1577 7.53809C26.6636 7.91764 26.0029 8.10742 25.1758 8.10742C24.6387 8.10742 24.1374 8.00537 23.6719 7.80127C23.2064 7.59359 22.8465 7.31071 22.5923 6.95264C22.3416 6.59456 22.2163 6.18815 22.2163 5.7334H23.2529C23.2529 6.20605 23.4266 6.58024 23.7739 6.85596C24.1248 7.12809 24.5921 7.26416 25.1758 7.26416C25.7201 7.26416 26.1372 7.15316 26.4272 6.93115C26.7173 6.70915 26.8623 6.40658 26.8623 6.02344C26.8623 5.6403 26.728 5.34489 26.4595 5.13721C26.1909 4.92594 25.7039 4.71826 24.9985 4.51416ZM1.6084 12.8906L3.93262 18.6914L6.25684 12.8906H7.47266V20H6.53516V17.2314L6.62305 14.2432L4.28906 20H3.57129L1.24219 14.2578L1.33496 17.2314V20H0.397461V12.8906H1.6084ZM8.74707 17.3096C8.74707 16.792 8.84798 16.3265 9.0498 15.9131C9.25488 15.4997 9.53809 15.1807 9.89941 14.9561C10.264 14.7314 10.679 14.6191 11.1445 14.6191C11.8639 14.6191 12.445 14.8682 12.8877 15.3662C13.3337 15.8643 13.5566 16.5267 13.5566 17.3535V17.417C13.5566 17.9313 13.4574 18.3936 13.2588 18.8037C13.0635 19.2106 12.7819 19.528 12.4141 19.7559C12.0495 19.9837 11.6296 20.0977 11.1543 20.0977C10.4382 20.0977 9.8571 19.8486 9.41113 19.3506C8.96842 18.8525 8.74707 18.1934 8.74707 17.373V17.3096ZM9.65527 17.417C9.65527 18.0029 9.79036 18.4733 10.0605 18.8281C10.334 19.1829 10.6986 19.3604 11.1543 19.3604C11.6133 19.3604 11.9779 19.1813 12.248 18.8232C12.5182 18.4619 12.6533 17.9574 12.6533 17.3096C12.6533 16.7301 12.515 16.2614 12.2383 15.9033C11.9648 15.542 11.6003 15.3613 11.1445 15.3613C10.6986 15.3613 10.3389 15.5387 10.0654 15.8936C9.79199 16.2484 9.65527 16.7562 9.65527 17.417ZM14.4697 17.3145C14.4697 16.5039 14.6618 15.8529 15.0459 15.3613C15.43 14.8665 15.9329 14.6191 16.5547 14.6191C17.1732 14.6191 17.6631 14.8307 18.0244 15.2539V12.5H18.9277V20H18.0977L18.0537 19.4336C17.6924 19.8763 17.1895 20.0977 16.5449 20.0977C15.9329 20.0977 15.4333 19.847 15.0459 19.3457C14.6618 18.8444 14.4697 18.1901 14.4697 17.3828V17.3145ZM15.373 17.417C15.373 18.016 15.4967 18.4847 15.7441 18.8232C15.9915 19.1618 16.3333 19.3311 16.7695 19.3311C17.3424 19.3311 17.7607 19.0739 18.0244 18.5596V16.1328C17.7542 15.6348 17.3392 15.3857 16.7793 15.3857C16.3366 15.3857 15.9915 15.5566 15.7441 15.8984C15.4967 16.2402 15.373 16.7464 15.373 17.417ZM23.5957 19.4775C23.2441 19.891 22.7282 20.0977 22.0479 20.0977C21.4847 20.0977 21.055 19.9349 20.7588 19.6094C20.4658 19.2806 20.3177 18.7956 20.3145 18.1543V14.7168H21.2178V18.1299C21.2178 18.9307 21.5433 19.3311 22.1943 19.3311C22.8844 19.3311 23.3434 19.0739 23.5713 18.5596V14.7168H24.4746V20H23.6152L23.5957 19.4775ZM26.833 20H25.9297V12.5H26.833V20ZM31.5449 20C31.4928 19.8958 31.4505 19.7103 31.418 19.4434C30.998 19.8796 30.4967 20.0977 29.9141 20.0977C29.3932 20.0977 28.9652 19.9512 28.6299 19.6582C28.2979 19.362 28.1318 18.9876 28.1318 18.5352C28.1318 17.985 28.3402 17.5586 28.7568 17.2559C29.1768 16.9499 29.766 16.7969 30.5244 16.7969H31.4033V16.3818C31.4033 16.0661 31.3089 15.8154 31.1201 15.6299C30.9313 15.4411 30.653 15.3467 30.2852 15.3467C29.9629 15.3467 29.6927 15.4281 29.4746 15.5908C29.2565 15.7536 29.1475 15.9505 29.1475 16.1816H28.2393C28.2393 15.918 28.332 15.6641 28.5176 15.4199C28.7064 15.1725 28.9603 14.9772 29.2793 14.834C29.6016 14.6908 29.9548 14.6191 30.3389 14.6191C30.9476 14.6191 31.4245 14.7721 31.7695 15.0781C32.1146 15.3809 32.2936 15.7992 32.3066 16.333V18.7646C32.3066 19.2497 32.3685 19.6354 32.4922 19.9219V20H31.5449ZM30.0459 19.3115C30.3291 19.3115 30.5977 19.2383 30.8516 19.0918C31.1055 18.9453 31.2894 18.7549 31.4033 18.5205V17.4365H30.6953C29.5885 17.4365 29.0352 17.7604 29.0352 18.4082C29.0352 18.6914 29.1296 18.9128 29.3184 19.0723C29.5072 19.2318 29.7497 19.3115 30.0459 19.3115ZM36.2764 15.5273C36.1396 15.5046 35.9915 15.4932 35.832 15.4932C35.2396 15.4932 34.8376 15.7454 34.626 16.25V20H33.7227V14.7168H34.6016L34.6162 15.3271C34.9124 14.8551 35.3324 14.6191 35.876 14.6191C36.0518 14.6191 36.1852 14.6419 36.2764 14.6875V15.5273Z" fill="black"/>
</svg>
