<svg width="38" height="58" viewBox="0 0 38 58" fill="none" xmlns="http://www.w3.org/2000/svg">
<path d="M7.64746 7.63818L7.85254 9.04443L8.15283 7.77734L10.2622 0.335938H11.4487L13.5068 7.77734L13.7998 9.06641L14.0269 7.63086L15.6821 0.335938H17.0957L14.5103 11H13.2285L11.0312 3.229L10.8628 2.41602L10.6943 3.229L8.4165 11H7.13477L4.55664 0.335938H5.96289L7.64746 7.63818ZM23.0942 11C23.0161 10.8438 22.9526 10.5654 22.9038 10.165C22.2739 10.8193 21.522 11.1465 20.6479 11.1465C19.8667 11.1465 19.2246 10.9268 18.7217 10.4873C18.2236 10.043 17.9746 9.48145 17.9746 8.80273C17.9746 7.97754 18.2871 7.33789 18.9121 6.88379C19.542 6.4248 20.4258 6.19531 21.5635 6.19531H22.8818V5.57275C22.8818 5.09912 22.7402 4.72314 22.457 4.44482C22.1738 4.16162 21.7563 4.02002 21.2046 4.02002C20.7212 4.02002 20.3159 4.14209 19.9888 4.38623C19.6616 4.63037 19.498 4.92578 19.498 5.27246H18.1357C18.1357 4.87695 18.2749 4.49609 18.5532 4.12988C18.8364 3.75879 19.2173 3.46582 19.6958 3.25098C20.1792 3.03613 20.709 2.92871 21.2852 2.92871C22.1982 2.92871 22.9136 3.1582 23.4312 3.61719C23.9487 4.07129 24.2173 4.69873 24.2368 5.49951V9.14697C24.2368 9.87451 24.3296 10.4531 24.5151 10.8828V11H23.0942ZM20.8457 9.96729C21.2705 9.96729 21.6733 9.85742 22.0542 9.6377C22.4351 9.41797 22.7109 9.13232 22.8818 8.78076V7.15479H21.8198C20.1597 7.15479 19.3296 7.64062 19.3296 8.6123C19.3296 9.03711 19.4712 9.36914 19.7544 9.6084C20.0376 9.84766 20.4014 9.96729 20.8457 9.96729ZM27.833 11H26.478V3.0752H27.833V11ZM26.3682 0.973145C26.3682 0.753418 26.4341 0.567871 26.5659 0.416504C26.7026 0.265137 26.9028 0.189453 27.1665 0.189453C27.4302 0.189453 27.6304 0.265137 27.7671 0.416504C27.9038 0.567871 27.9722 0.753418 27.9722 0.973145C27.9722 1.19287 27.9038 1.37598 27.7671 1.52246C27.6304 1.66895 27.4302 1.74219 27.1665 1.74219C26.9028 1.74219 26.7026 1.66895 26.5659 1.52246C26.4341 1.37598 26.3682 1.19287 26.3682 0.973145ZM31.8467 1.15625V3.0752H33.3262V4.12256H31.8467V9.03711C31.8467 9.35449 31.9126 9.59375 32.0444 9.75488C32.1763 9.91113 32.4009 9.98926 32.7183 9.98926C32.8745 9.98926 33.0894 9.95996 33.3628 9.90137V11C33.0063 11.0977 32.6597 11.1465 32.3228 11.1465C31.7173 11.1465 31.2607 10.9634 30.9531 10.5972C30.6455 10.231 30.4917 9.71094 30.4917 9.03711V4.12256H29.0488V3.0752H30.4917V1.15625H31.8467ZM4.90186 22.3818V26H3.68311V16.7578H7.0918C8.10319 16.7578 8.89453 17.016 9.46582 17.5322C10.0413 18.0485 10.3291 18.7319 10.3291 19.5825C10.3291 20.4797 10.0477 21.1715 9.48486 21.6582C8.92627 22.1406 8.12435 22.3818 7.0791 22.3818H4.90186ZM4.90186 21.3853H7.0918C7.74349 21.3853 8.24284 21.2329 8.58984 20.9282C8.93685 20.6193 9.11035 20.175 9.11035 19.5952C9.11035 19.0451 8.93685 18.605 8.58984 18.2749C8.24284 17.9448 7.76676 17.7734 7.16162 17.7607H4.90186V21.3853ZM15.02 20.1855C14.8423 20.1559 14.6497 20.1411 14.4424 20.1411C13.6722 20.1411 13.1496 20.4691 12.8745 21.125V26H11.7002V19.1318H12.8428L12.8618 19.9253C13.2469 19.3117 13.7928 19.0049 14.4995 19.0049C14.728 19.0049 14.9015 19.0345 15.02 19.0938V20.1855ZM18.8286 26.127C17.8976 26.127 17.1401 25.8223 16.5562 25.2129C15.9722 24.5993 15.6802 23.7804 15.6802 22.7563V22.5405C15.6802 21.8592 15.8092 21.252 16.0674 20.7188C16.3298 20.1813 16.6937 19.7624 17.1592 19.4619C17.6289 19.1572 18.1367 19.0049 18.6826 19.0049C19.5755 19.0049 20.2695 19.299 20.7646 19.8872C21.2598 20.4754 21.5073 21.3175 21.5073 22.4136V22.9023H16.8545C16.8714 23.5794 17.0682 24.1274 17.4448 24.5464C17.8257 24.9611 18.3081 25.1685 18.8921 25.1685C19.3068 25.1685 19.658 25.0838 19.9458 24.9146C20.2336 24.7453 20.4854 24.521 20.7012 24.2417L21.4185 24.8003C20.8429 25.6847 19.9797 26.127 18.8286 26.127ZM18.6826 19.9697C18.2087 19.9697 17.8109 20.1432 17.4893 20.4902C17.1676 20.833 16.9688 21.3154 16.8926 21.9375H20.333V21.8486C20.2992 21.252 20.1383 20.7907 19.8506 20.4648C19.5628 20.1348 19.1735 19.9697 18.6826 19.9697ZM26.8711 24.1782C26.8711 23.8608 26.7505 23.6154 26.5093 23.4419C26.2723 23.2642 25.8555 23.1118 25.2588 22.9849C24.6663 22.8579 24.1945 22.7056 23.8433 22.5278C23.4963 22.3501 23.2381 22.1385 23.0688 21.8931C22.9038 21.6476 22.8213 21.3556 22.8213 21.0171C22.8213 20.4543 23.0583 19.9782 23.5322 19.5889C24.0104 19.1995 24.6198 19.0049 25.3604 19.0049C26.139 19.0049 26.7695 19.2059 27.252 19.6079C27.7386 20.0099 27.9819 20.5241 27.9819 21.1504H26.8013C26.8013 20.8288 26.6637 20.5516 26.3887 20.3188C26.1178 20.0861 25.7751 19.9697 25.3604 19.9697C24.9329 19.9697 24.5986 20.0628 24.3574 20.249C24.1162 20.4352 23.9956 20.6785 23.9956 20.979C23.9956 21.2625 24.1077 21.4762 24.332 21.6201C24.5563 21.764 24.9604 21.9015 25.5444 22.0327C26.1326 22.1639 26.6087 22.3205 26.9727 22.5024C27.3366 22.6844 27.6053 22.9045 27.7788 23.1626C27.9565 23.4165 28.0454 23.7275 28.0454 24.0957C28.0454 24.7093 27.8 25.2023 27.3091 25.5747C26.8182 25.9429 26.1813 26.127 25.3984 26.127C24.8483 26.127 24.3617 26.0296 23.9385 25.835C23.5153 25.6403 23.1831 25.3695 22.9419 25.0225C22.7049 24.6712 22.5864 24.2925 22.5864 23.8862H23.7607C23.7819 24.2798 23.9385 24.5929 24.2305 24.8257C24.5267 25.0542 24.916 25.1685 25.3984 25.1685C25.8428 25.1685 26.1982 25.0796 26.4648 24.9019C26.7357 24.7199 26.8711 24.4787 26.8711 24.1782ZM33.5742 24.1782C33.5742 23.8608 33.4536 23.6154 33.2124 23.4419C32.9754 23.2642 32.5586 23.1118 31.9619 22.9849C31.3695 22.8579 30.8976 22.7056 30.5464 22.5278C30.1994 22.3501 29.9412 22.1385 29.772 21.8931C29.6069 21.6476 29.5244 21.3556 29.5244 21.0171C29.5244 20.4543 29.7614 19.9782 30.2354 19.5889C30.7135 19.1995 31.3229 19.0049 32.0635 19.0049C32.8421 19.0049 33.4727 19.2059 33.9551 19.6079C34.4417 20.0099 34.6851 20.5241 34.6851 21.1504H33.5044C33.5044 20.8288 33.3669 20.5516 33.0918 20.3188C32.821 20.0861 32.4782 19.9697 32.0635 19.9697C31.6361 19.9697 31.3018 20.0628 31.0605 20.249C30.8193 20.4352 30.6987 20.6785 30.6987 20.979C30.6987 21.2625 30.8109 21.4762 31.0352 21.6201C31.2594 21.764 31.6636 21.9015 32.2476 22.0327C32.8358 22.1639 33.3118 22.3205 33.6758 22.5024C34.0397 22.6844 34.3084 22.9045 34.4819 23.1626C34.6597 23.4165 34.7485 23.7275 34.7485 24.0957C34.7485 24.7093 34.5031 25.2023 34.0122 25.5747C33.5213 25.9429 32.8844 26.127 32.1016 26.127C31.5514 26.127 31.0648 26.0296 30.6416 25.835C30.2184 25.6403 29.8862 25.3695 29.645 25.0225C29.408 24.6712 29.2896 24.2925 29.2896 23.8862H30.4639C30.485 24.2798 30.6416 24.5929 30.9336 24.8257C31.2298 25.0542 31.6191 25.1685 32.1016 25.1685C32.5459 25.1685 32.9014 25.0796 33.168 24.9019C33.4388 24.7199 33.5742 24.4787 33.5742 24.1782ZM8.00098 37.5635C6.87533 37.2399 6.05501 36.8434 5.54004 36.374C5.02962 35.9001 4.77441 35.3167 4.77441 34.624C4.77441 33.8402 5.08659 33.193 5.71094 32.6826C6.33984 32.1676 7.1556 31.9102 8.1582 31.9102C8.8418 31.9102 9.4502 32.0423 9.9834 32.3066C10.5212 32.571 10.9359 32.9355 11.2275 33.4004C11.5238 33.8652 11.6719 34.3734 11.6719 34.9248H10.3525C10.3525 34.3232 10.1611 33.8516 9.77832 33.5098C9.39551 33.1634 8.85547 32.9902 8.1582 32.9902C7.51107 32.9902 7.00521 33.1338 6.64062 33.4209C6.2806 33.7035 6.10059 34.0977 6.10059 34.6035C6.10059 35.0091 6.27148 35.3532 6.61328 35.6357C6.95964 35.9137 7.54525 36.1689 8.37012 36.4014C9.19954 36.6338 9.84668 36.8913 10.3115 37.1738C10.7809 37.4518 11.1273 37.7777 11.3506 38.1514C11.5785 38.5251 11.6924 38.9648 11.6924 39.4707C11.6924 40.2773 11.3779 40.9245 10.749 41.4121C10.1201 41.8952 9.2793 42.1367 8.22656 42.1367C7.54297 42.1367 6.90495 42.0068 6.3125 41.7471C5.72005 41.4827 5.26204 41.1227 4.93848 40.667C4.61947 40.2113 4.45996 39.694 4.45996 39.1152H5.7793C5.7793 39.7168 6.00033 40.193 6.44238 40.5439C6.889 40.8903 7.48372 41.0635 8.22656 41.0635C8.91927 41.0635 9.4502 40.9222 9.81934 40.6396C10.1885 40.3571 10.373 39.972 10.373 39.4844C10.373 38.9967 10.2021 38.6208 9.86035 38.3564C9.51855 38.0876 8.89876 37.8232 8.00098 37.5635ZM14.8984 32.8125V34.6035H16.2793V35.5811H14.8984V40.168C14.8984 40.4642 14.96 40.6875 15.083 40.8379C15.2061 40.9837 15.4157 41.0566 15.7119 41.0566C15.8577 41.0566 16.0583 41.0293 16.3135 40.9746V42C15.9808 42.0911 15.6572 42.1367 15.3428 42.1367C14.7777 42.1367 14.3516 41.9658 14.0645 41.624C13.7773 41.2822 13.6338 40.7969 13.6338 40.168V35.5811H12.2871V34.6035H13.6338V32.8125H14.8984ZM22.3291 42C22.2562 41.8542 22.1969 41.5944 22.1514 41.2207C21.5635 41.8314 20.8617 42.1367 20.0459 42.1367C19.3167 42.1367 18.7174 41.9316 18.248 41.5215C17.7832 41.1068 17.5508 40.5827 17.5508 39.9492C17.5508 39.179 17.8424 38.582 18.4258 38.1582C19.0137 37.7298 19.8385 37.5156 20.9004 37.5156H22.1309V36.9346C22.1309 36.4925 21.9987 36.1416 21.7344 35.8818C21.4701 35.6175 21.0804 35.4854 20.5654 35.4854C20.1143 35.4854 19.736 35.5993 19.4307 35.8271C19.1253 36.055 18.9727 36.3307 18.9727 36.6543H17.7012C17.7012 36.2852 17.8311 35.9297 18.0908 35.5879C18.3551 35.2415 18.7106 34.9681 19.1572 34.7676C19.6084 34.5671 20.1029 34.4668 20.6406 34.4668C21.4928 34.4668 22.1605 34.681 22.6436 35.1094C23.1266 35.5332 23.3773 36.1188 23.3955 36.8662V40.2705C23.3955 40.9495 23.4821 41.4896 23.6553 41.8906V42H22.3291ZM20.2305 41.0361C20.627 41.0361 21.0029 40.9336 21.3584 40.7285C21.7139 40.5234 21.9714 40.2568 22.1309 39.9287V38.4111H21.1396C19.5902 38.4111 18.8154 38.8646 18.8154 39.7715C18.8154 40.168 18.9476 40.4779 19.2119 40.7012C19.4762 40.9245 19.8158 41.0361 20.2305 41.0361ZM28.9531 35.7383C28.7617 35.7064 28.5544 35.6904 28.3311 35.6904C27.5016 35.6904 26.9388 36.0436 26.6426 36.75V42H25.3779V34.6035H26.6084L26.6289 35.458C27.0436 34.7972 27.6315 34.4668 28.3926 34.4668C28.6387 34.4668 28.8255 34.4987 28.9531 34.5625V35.7383ZM32.1797 32.8125V34.6035H33.5605V35.5811H32.1797V40.168C32.1797 40.4642 32.2412 40.6875 32.3643 40.8379C32.4873 40.9837 32.6969 41.0566 32.9932 41.0566C33.139 41.0566 33.3395 41.0293 33.5947 40.9746V42C33.262 42.0911 32.9385 42.1367 32.624 42.1367C32.0589 42.1367 31.6328 41.9658 31.3457 41.624C31.0586 41.2822 30.915 40.7969 30.915 40.168V35.5811H29.5684V34.6035H30.915V32.8125H32.1797ZM0.953613 57V47.7578H3.9751C4.97803 47.7578 5.73128 47.9652 6.23486 48.3799C6.74268 48.7946 6.99658 49.4082 6.99658 50.2207C6.99658 50.6523 6.87386 51.0353 6.62842 51.3696C6.38298 51.6997 6.04867 51.9557 5.62549 52.1377C6.12484 52.2773 6.51839 52.5439 6.80615 52.9375C7.09814 53.3268 7.24414 53.7923 7.24414 54.334C7.24414 55.1634 6.97542 55.8151 6.43799 56.2891C5.90055 56.763 5.14095 57 4.15918 57H0.953613ZM2.17236 52.6772V56.0034H4.18457C4.75163 56.0034 5.19808 55.8574 5.52393 55.5654C5.854 55.2692 6.01904 54.863 6.01904 54.3467C6.01904 53.2337 5.4139 52.6772 4.20361 52.6772H2.17236ZM2.17236 51.6997H4.01318C4.54639 51.6997 4.97168 51.5664 5.28906 51.2998C5.61068 51.0332 5.77148 50.6714 5.77148 50.2144C5.77148 49.7065 5.62337 49.3384 5.32715 49.1099C5.03092 48.8771 4.58024 48.7607 3.9751 48.7607H2.17236V51.6997ZM13.1094 56.3208C12.6523 56.8582 11.9816 57.127 11.0972 57.127C10.3651 57.127 9.80648 56.9154 9.42139 56.4922C9.04053 56.0648 8.84798 55.4342 8.84375 54.6006V50.1318H10.0181V54.5688C10.0181 55.6099 10.4412 56.1304 11.2876 56.1304C12.1847 56.1304 12.7814 55.7961 13.0776 55.1274V50.1318H14.252V57H13.1348L13.1094 56.3208ZM17.6353 48.4688V50.1318H18.9175V51.0396H17.6353V55.2988C17.6353 55.5739 17.6924 55.7812 17.8066 55.9209C17.9209 56.0563 18.1156 56.124 18.3906 56.124C18.526 56.124 18.7122 56.0986 18.9492 56.0479V57C18.6403 57.0846 18.3398 57.127 18.0479 57.127C17.5231 57.127 17.1274 56.9683 16.8608 56.6509C16.5942 56.3335 16.4609 55.8828 16.4609 55.2988V51.0396H15.2104V50.1318H16.4609V48.4688H17.6353ZM21.8882 48.4688V50.1318H23.1704V51.0396H21.8882V55.2988C21.8882 55.5739 21.9453 55.7812 22.0596 55.9209C22.1738 56.0563 22.3685 56.124 22.6436 56.124C22.779 56.124 22.9652 56.0986 23.2021 56.0479V57C22.8932 57.0846 22.5928 57.127 22.3008 57.127C21.776 57.127 21.3804 56.9683 21.1138 56.6509C20.8472 56.3335 20.7139 55.8828 20.7139 55.2988V51.0396H19.4634V50.1318H20.7139V48.4688H21.8882ZM24.1099 53.5024C24.1099 52.8296 24.241 52.2244 24.5034 51.687C24.77 51.1496 25.1382 50.7349 25.6079 50.4429C26.0819 50.1509 26.6214 50.0049 27.2266 50.0049C28.1618 50.0049 28.9172 50.3286 29.4927 50.9761C30.0724 51.6235 30.3623 52.4847 30.3623 53.5596V53.6421C30.3623 54.3107 30.2332 54.9116 29.9751 55.4448C29.7212 55.9738 29.3551 56.3864 28.877 56.6826C28.403 56.9788 27.8571 57.127 27.2393 57.127C26.3083 57.127 25.5529 56.8032 24.9731 56.1558C24.3976 55.5083 24.1099 54.6514 24.1099 53.585V53.5024ZM25.2905 53.6421C25.2905 54.4038 25.4661 55.0153 25.8174 55.4766C26.1729 55.9378 26.6468 56.1685 27.2393 56.1685C27.8359 56.1685 28.3099 55.9357 28.6611 55.4702C29.0124 55.0005 29.188 54.3446 29.188 53.5024C29.188 52.7492 29.0081 52.1398 28.6484 51.6743C28.293 51.2046 27.819 50.9697 27.2266 50.9697C26.6468 50.9697 26.1792 51.2004 25.8237 51.6616C25.4683 52.1229 25.2905 52.783 25.2905 53.6421ZM32.9458 50.1318L32.9839 50.9951C33.5086 50.335 34.1942 50.0049 35.0405 50.0049C36.492 50.0049 37.2241 50.8237 37.2368 52.4614V57H36.0625V52.4551C36.0583 51.96 35.944 51.5939 35.7197 51.3569C35.4997 51.12 35.1548 51.0015 34.6851 51.0015C34.3042 51.0015 33.9699 51.103 33.6821 51.3062C33.3944 51.5093 33.1701 51.7759 33.0093 52.106V57H31.835V50.1318H32.9458Z" fill="black"/>
</svg>
